Simulation
nRows=41
nColumns=15
endheader
time  TH_x TH_y TH_z SC_y  SC_z  SC_x  AC_y  AC_z  AC_x  GH_y  GH_z  GH_yy  EL_x  PS_y
1.55  0.000000  0.000000  0.000000  -32.93936445558054  6.298599590862097  29.80361206012075  54.566013269238525  5.379768007285966  -10.84125459564595  22.470598431368604  54.344158002989566  -21.05198982182284  17.92376284549172  0.000000
1.581  0.000000  0.000000  0.000000  -33.39113295421608  6.634206234783457  30.527540234700368  54.66130002416861  5.37783234481278  -10.50765412108444  22.249242988823074  54.792477879159044  -21.027527202876033  17.891626161593386  0.000000
1.612  0.000000  0.000000  0.000000  -33.78376712353897  6.919068240746434  31.0668410485132  54.766731135408186  5.406361317488733  -10.147597184599624  21.98987263354681  55.22208268037312  -20.934638145981985  17.86919604648223  0.000000
1.643  0.000000  0.000000  0.000000  -34.115817848620395  7.128159704090718  31.450765121886423  54.879570637269026  5.473557912477895  -9.80864265790189  21.711161386874902  55.61492319612901  -20.824425806925234  17.870286525115777  0.000000
1.674  0.000000  0.000000  0.000000  -34.414141716140925  7.268518813055757  31.720853370437275  54.998637646964774  5.571896407442115  -9.505262320122316  21.453457608651316  55.933125330506186  -20.734048807067246  17.894087032743276  0.000000
1.705  0.000000  0.000000  0.000000  -34.70563371962811  7.361939996743491  31.914493258265555  55.11747238632861  5.68882485868285  -9.234018253992105  21.264126225314758  56.13527293121172  -20.67146040275788  17.92931909158716  0.000000
1.736  0.000000  0.000000  0.000000  -34.99388705336171  7.424520274011181  32.05397120279387  55.22679993300296  5.810595671497256  -8.999899561677882  21.178642488956925  56.19526062880061  -20.634620404489592  17.96556548647752  0.000000
1.767  0.000000  0.000000  0.000000  -35.25252202949043  7.460356711726907  32.139281138281035  55.31205433441667  5.917898460314109  -8.823301462849617  21.209697877580616  56.11632330742934  -20.619761151011545  17.998078518504396  0.000000
1.798  0.000000  0.000000  0.000000  -35.43479055649412  7.466977919272511  32.15349535820448  55.35522073133953  5.986479336505251  -8.7379922263527  21.349443231366937  55.92666698087081  -20.626463025863426  18.02499078553837  0.000000
1.829  0.000000  0.000000  0.000000  -35.49816470934778  7.4391510248550885  32.07988754423074  55.339555797231824  5.996712598663833  -8.774330442942142  21.583031889437027  55.65638238761123  -20.65862421597457  18.044678136722762  0.000000
1.8599999999999999  0.000000  0.000000  0.000000  -35.426722335066486  7.369327666171654  31.917393169573966  55.26645781605211  5.940324160194  -8.944327526931952  21.892231961626717  55.317028180371715  -20.738222655325515  18.055863741784787  0.000000
1.891  0.000000  0.000000  0.000000  -35.23344644187166  7.245427846239318  31.68210223525551  55.15719976774459  5.825325182349193  -9.235985976511863  22.256711195764137  54.89541908194703  -20.903009438052013  18.05885774662097  0.000000
1.922  0.000000  0.000000  0.000000  -34.94442977569703  7.055039579964711  31.393996886423803  55.04343206435779  5.667772832523285  -9.624485741821692  22.65322406629627  54.37008089207724  -21.192249639627736  18.0548082133864  0.000000
1.953  0.000000  0.000000  0.000000  -34.58705777216412  6.793393771644142  31.06213390462514  54.94886664336021  5.482406191379655  -10.079491890975085  23.061945443587614  53.72551185700774  -21.611380258907644  18.049046045467108  0.000000
1.984  0.000000  0.000000  0.000000  -34.19382325184541  6.472823906056657  30.6745615957009  54.88579109863154  5.2678860352457875  -10.563246343629118  23.473123586451422  52.965985044950315  -22.11673267512966  18.050834324896776  0.000000
2.015  0.000000  0.000000  0.000000  -33.80043943012802  6.120745035531014  30.19232041286178  54.860629606287205  5.010906711181366  -11.019305409469386  23.874259528841794  52.116874488733146  -22.624174981933365  18.071357161143876  0.000000
2.046  0.000000  0.000000  0.000000  -33.43390885512225  5.763781708700149  29.569168761489298  54.87434786923772  4.710431980899696  -11.391374721017417  24.251769909491045  51.20573614945475  -23.05579926025675  18.12101151968519  0.000000
2.077  0.000000  0.000000  0.000000  -33.105497411945905  5.41442187817222  28.7756060260763  54.91816422997381  4.3899527658433  -11.639151342781286  24.59518999930164  50.24661288035487  -23.371292849101263  18.20184653236039  0.000000
2.108  0.000000  0.000000  0.000000  -32.80812332732665  5.065459194130778  27.81181172555875  54.977307355647746  4.089909596214033  -11.759635070656081  24.90346859758205  49.24460315522725  -23.575501825080742  18.307840539385914  0.000000
2.139  0.000000  0.000000  0.000000  -32.53352071046263  4.705283384238821  26.704714876453494  55.039582639928945  3.84008845480726  -11.770828019185007  25.179414421433627  48.20078847023994  -23.69169591852607  18.42980948735849  0.000000
2.17  0.000000  0.000000  0.000000  -32.279126828765946  4.328064224733998  25.487795245859754  55.09882697183815  3.645338388389808  -11.695603506206144  25.423281288249264  47.121882916148586  -23.744030735574263  18.558075202968723  0.000000
2.201  0.000000  0.000000  0.000000  -32.04291005430162  3.9328472610072693  24.189289586418067  55.14557928234091  3.4994975291481154  -11.554784146603035  25.634883918680366  46.011734035819366  -23.744601401654677  18.68672399886375  0.000000
2.232  0.000000  0.000000  0.000000  -31.819949321775475  3.5236438765752087  22.829406045734117  55.1697946069664  3.3904785024143482  -11.36562705222392  25.81318117457682  44.873410083732075  -23.69872074089525  18.811041832916125  0.000000
2.263  0.000000  0.000000  0.000000  -31.605325881062495  3.101150665155419  21.425326305104356  55.16341640970024  3.3108694944773474  -11.14206750670906  25.956403926244718  43.71101226893505  -23.60612116006358  18.928448478041567  0.000000
2.294  0.000000  0.000000  0.000000  -31.39680130389798  2.6679326461687944  19.997960569394575  55.126188178256676  3.2598642545273107  -10.894371435430559  26.064666002705064  42.52818068372279  -23.465904466160232  19.03493256697816  0.000000
2.325  0.000000  0.000000  0.000000  -31.19691508216795  2.2285548411193634  18.57066709778969  55.06205025193667  3.2389462515204768  -10.629599650202914  26.14169138384961  41.32780624566363  -23.274101653754112  19.127124302465656  0.000000
2.356  0.000000  0.000000  0.000000  -31.010304953802535  1.7855634849366406  17.16418344999475  54.97835557570178  3.2467876840139356  -10.354822919896977  26.197314858946307  40.11012940324176  -23.027483751529303  19.203331717981115  0.000000
2.387  0.000000  0.000000  0.000000  -30.837386576621572  1.3457337744665527  15.79669693340083  54.87665551707056  3.2710773995806623  -10.077573297214384  26.24134583914947  38.87183148532379  -22.726855725217913  19.26540134654805  0.000000
2.418  0.000000  0.000000  0.000000  -30.676692241104746  0.919550831178347  14.479904197283746  54.755223740836534  3.3010990245382916  -9.800411626438452  26.281415900490956  37.6007139861457  -22.37746251487389  19.317308158017866  0.000000
2.449  0.000000  0.000000  0.000000  -30.524634726211318  0.5165340337163403  13.214387381762364  54.609107265158634  3.331016466839245  -9.523692630178907  26.3204242886728  36.28549002761303  -21.987047704362446  19.364241871666007  0.000000
2.48  0.000000  0.000000  0.000000  -30.379526129128493  0.14237545246838962  12.000005611740892  54.43600063096762  3.3613972720621708  -9.246454815137707  26.36326387636513  34.913230216525996  -21.56586794592115  19.40964728351312  0.000000
2.511  0.000000  0.000000  0.000000  -30.24147548172247  -0.2021304833344249  10.839630519350704  54.24039665101508  3.3943648384200764  -8.972020109402147  26.41412258977944  33.47824981085133  -21.133537445480943  19.4547771520116  0.000000
2.542  0.000000  0.000000  0.000000  -30.115980816169216  -0.5230415659056543  9.742195927124047  54.03421664248242  3.439345068820681  -8.704311434794132  26.480351639120382  31.97508714398496  -20.71301967541464  19.499281070879988  0.000000
2.573  0.000000  0.000000  0.000000  -30.008232201109347  -0.8247888745213592  8.716064764728094  53.83333410029905  3.50045183195358  -8.447870391605438  26.566350017042268  30.40681678308852  -20.331246992669474  19.541411855767933  0.000000
2.604  0.000000  0.000000  0.000000  -29.921833978701002  -1.1045514255069186  7.766745355906962  53.64528476480227  3.579327303810693  -8.19916167406161  26.680139722026542  28.773513486900256  -19.999168942446385  19.58205021751612  0.000000
2.635  0.000000  0.000000  0.000000  -29.847852835185734  -1.3518492412110457  6.890959640511165  53.470528549432366  3.668451825595278  -7.954392341576978  26.82709913403646  27.082098845668774  -19.71678828272084  19.619818804154495  0.000000
2.666  0.000000  0.000000  0.000000  -29.775367798770837  -1.5550394548228592  6.083154065052106  53.298889693528  3.761538891411555  -7.704959174618665  27.01380107655912  25.33554982842979  -19.46820912622171  19.65753991138083  0.000000
2.697  0.000000  0.000000  0.000000  -29.694567674526883  -1.7080192687851399  5.334200495106738  53.12731192236407  3.852238807645469  -7.450233664289137  27.24202055288302  23.548581569449375  -19.24000279896917  19.69511955876466  0.000000
2.7279999999999998  0.000000  0.000000  0.000000  -29.60551433170606  -1.8167583827827092  4.638889409295997  52.947961790056816  3.9410125442206603  -7.192826659598538  27.510156539472042  21.739420280454194  -19.01669541696234  19.73797107214231  0.000000
2.759  0.000000  0.000000  0.000000  -29.51475744211342  -1.895522325825508  3.992460906572367  52.767197331931506  4.02962555536169  -6.946635250885817  27.815072468031538  19.937864253840058  -18.79020757319482  19.786450857646795  0.000000
2.79  0.000000  0.000000  0.000000  -29.428804389511924  -1.9570014298492255  3.3966202887811536  52.579340507402186  4.1177925829091455  -6.720691891546552  28.152765902467728  18.163319829781823  -18.555155867497003  19.847398819615975  0.000000
